<svg xmlns="http://www.w3.org/2000/svg" viewBox="0 0 565.99 136.02"><defs><style>.cls-1{fill:#00144d;}</style></defs><title>P80 SignatureAsset 17</title><g id="Layer_2" data-name="Layer 2"><g id="Layer_1-2" data-name="Layer 1"><path class="cls-1" d="M.63,130.44A1.86,1.86,0,0,1,0,129a2.25,2.25,0,0,1,.56-1.54,1.93,1.93,0,0,1,1.53-.63l113-3.76a2.07,2.07,0,0,1,1.46.56,1.84,1.84,0,0,1,.63,1.46,2.22,2.22,0,0,1-.56,1.53,1.93,1.93,0,0,1-1.53.63L2.09,131A2.13,2.13,0,0,1,.63,130.44ZM9.83,9.86a2,2,0,0,1,0-2.93A2,2,0,0,1,11.3,6.3L136.41,3.79a2,2,0,0,1,1.47.63,2,2,0,0,1,0,2.93,2,2,0,0,1-1.47.63L11.3,10.49A2,2,0,0,1,9.83,9.86ZM65.28,2.75a2.12,2.12,0,0,1,1.6-.07A1.94,1.94,0,0,1,68,3.79a2,2,0,0,1,.07,1.54L17.85,134.21a1.88,1.88,0,0,1-1.11,1.18,2.15,2.15,0,0,1-1.61.07A1.9,1.9,0,0,1,14,134.35a1.94,1.94,0,0,1-.07-1.54L64.16,3.93A1.87,1.87,0,0,1,65.28,2.75ZM19.88,69a2,2,0,0,1,0-2.93,2,2,0,0,1,1.46-.63H84.52a2.1,2.1,0,0,1,0,4.19H21.34A2,2,0,0,1,19.88,69Z"/><path class="cls-1" d="M37.59,36.36A2,2,0,0,1,37,34.9a2,2,0,0,1,.63-1.47,2,2,0,0,1,1.46-.63l106,1.4a2.07,2.07,0,0,1,1.46,3.56,2,2,0,0,1-1.46.62L39.05,37A2,2,0,0,1,37.59,36.36Zm73-17.64a2.13,2.13,0,0,1,1.61.07,1.88,1.88,0,0,1,1,1.18,2.15,2.15,0,0,1,0,1.54q-2.5,5.72-8.64,20.22T90.1,78.9q-8.37,22.66-7.67,27.55,3.76-1,11.65-11.23t14.57-20q6.7-9.76,7.81-9.77a2.14,2.14,0,0,1,2.09,2.1,2.52,2.52,0,0,1-.27,1.11l-.14.28q-1.68,2.92-3.63,6t-6.76,10.18q-4.81,7.11-8.93,12.2a73.42,73.42,0,0,1-8.93,9.28q-4.81,4.18-8,4.18-3.62,0-3.62-5.16,0-4.6,3.41-15.69t7.26-21.13q3.83-10,9.69-23.92t7.32-17.23q1.47-3.34,3.42-7.81A2.16,2.16,0,0,1,110.6,18.72Z"/><path class="cls-1" d="M115.35,65.93a2.17,2.17,0,0,1,1.6-.07A1.93,1.93,0,0,1,118.07,67a2.35,2.35,0,0,1,.07,1.67q-8.23,20.09-10.74,29.57,2.92-3.34,9-11.85t10.74-14.72q4.68-6.21,5.93-6.21a2,2,0,0,1,1.46.63,2,2,0,0,1,.21,2.72c-1.21,1.86-2.28,3.47-3.2,4.81s-2.05,3-3.35,4.81-2.65,3.75-4.05,5.65-2.83,3.86-4.32,5.86-3,3.88-4.39,5.65-2.79,3.35-4,4.74a27.8,27.8,0,0,1-3.49,3.35,6.29,6.29,0,0,1-2.44,1.39,2.17,2.17,0,0,1-2.09-.76,4.18,4.18,0,0,1-.84-1.75Q102,97.11,114.23,67A1.91,1.91,0,0,1,115.35,65.93Zm4.81-14.85a2.21,2.21,0,0,1-1-1.19,1.77,1.77,0,0,1,.14-1.53,2.19,2.19,0,0,1,1.26-1l2.37-.7a2,2,0,0,1,1.6.14,2.19,2.19,0,0,1,1,1.26,2,2,0,0,1-.14,1.6,2.19,2.19,0,0,1-1.26,1l-2.37.7A2.43,2.43,0,0,1,120.16,51.08Z"/><path class="cls-1" d="M132,65.51a2.18,2.18,0,0,1,1.61-.07,1.87,1.87,0,0,1,1.18,1.12,2.3,2.3,0,0,1,.07,1.67l-4.46,12.28A79.91,79.91,0,0,1,138.71,68q3.69-4.32,7.46-4,2.93.28,3.63,2.58a11.17,11.17,0,0,1,.28,5l3.34-5.16a1.84,1.84,0,0,1,2.86-.56,1.77,1.77,0,0,1,.63,2.79L141.85,91.94a1.94,1.94,0,0,1-2.65.84,2.14,2.14,0,0,1-1.12-1.25,2.11,2.11,0,0,1,.14-1.68c.37-.65,1.19-2.35,2.44-5.09s2.56-6,3.91-9.69,1.79-6,1.32-7q-3.21-.27-11.51,14.23A296.35,296.35,0,0,0,118.83,114q-7.53,17.3-7.53,18.13a2,2,0,0,1-2.51,1.26,2.25,2.25,0,0,1-1.39-2.79l8.5-23.15L131,66.7A1.9,1.9,0,0,1,132,65.51Z"/><path class="cls-1" d="M160.4,66.28a42.27,42.27,0,0,0,12.27-.7,1.82,1.82,0,0,1,1.6.21,1.91,1.91,0,0,1,.91,1.33,2.21,2.21,0,0,1-.35,1.6,1.91,1.91,0,0,1-1.32.91,43.46,43.46,0,0,1-11.44,1A29.48,29.48,0,0,1,161,80a27.33,27.33,0,0,1-4.81,9.76q-3.42,4.47-7.88,4.88a6.37,6.37,0,0,1-1.95,0,5.54,5.54,0,0,1-4.53-3.27,11,11,0,0,1-.63-6.21,30,30,0,0,1,4.6-11.65q3.76-5.92,7.95-7.6a4.75,4.75,0,0,1,3.14-1.11A4,4,0,0,1,160.4,66.28Zm-4.89,3.49q-2.37.56-5.92,5.85a25,25,0,0,0-4.26,10q-.69,4.45,1.54,4.74a4.36,4.36,0,0,0,1.53,0c2.6-.56,5-3.3,7.11-8.23s2.89-8.93,2.24-12A15.21,15.21,0,0,1,155.51,69.77Z"/><path class="cls-1" d="M172.11,65.65a1.94,1.94,0,0,1,1.6,0,2.22,2.22,0,0,1,1.12,1.12,2.11,2.11,0,0,1,.07,1.6q-7,17.16-7.81,23.71,6.69-5.16,23.43-25.8a2.08,2.08,0,0,1,1.54-.77,1.89,1.89,0,0,1,1.53.49,2,2,0,0,1,.56,2.37q-10.32,25-10.88,32.64,2.92-2.24,9.13-11.23l11.51-16.67q5.29-7.67,6.42-7.67a2,2,0,0,1,1.46.63,2,2,0,0,1,.63,1.47,2.4,2.4,0,0,1-.28,1.11l-.28.42q-2.24,3.77-4.74,7.74t-7.67,11.65a94.7,94.7,0,0,1-9.77,12.48q-4.59,4.82-7.25,4.81c-2.23,0-3.35-1.48-3.35-4.46q.15-5.72,6.42-22.32c-.56.56-1.53,1.65-2.93,3.28s-2.44,2.86-3.14,3.7-1.69,2-3,3.41a43.12,43.12,0,0,1-3.2,3.28c-.84.75-1.79,1.54-2.86,2.37a12.65,12.65,0,0,1-2.79,1.75,4.11,4.11,0,0,1-2.16.34c-2.24-.27-3.07-2.27-2.52-6Q164,83.43,171,66.84A1.91,1.91,0,0,1,172.11,65.65Z"/><path class="cls-1" d="M305.17,75.9q.84,4,2.23,14.72t3,19.46a63.93,63.93,0,0,0,3.42,13q1.81,3.61,3.21,2.93,4.19-1.82,15.34-16.81t20.16-28.73q9-13.74,9-14a1.91,1.91,0,0,1,2.93-.56c1.21.75,1.44,1.68.7,2.79-1,1.58-2.33,3.68-3.91,6.28s-4.55,7.18-8.92,13.74-8.42,12.41-12.14,17.57-7.65,10.11-11.78,14.85-7.38,7.68-9.7,8.79q-5.16,2.37-8.65-5.16t-6.83-34q-1.12-7.81-1.67-11.3-34,34.17-46.17,47.56-1.95,2.1-3.35,3.63c-.09.18-.28.63-.56,1.32a10.86,10.86,0,0,1-.76,1.61,15.22,15.22,0,0,1-.91,1.25,3.23,3.23,0,0,1-1.19,1,3.46,3.46,0,0,1-1.46.28,1.74,1.74,0,0,1-1.26-.56,3,3,0,0,1-1-1.53,2.25,2.25,0,0,1,.35-1.75c.37-.6.72-1.11,1-1.53a17,17,0,0,1,1.33-1.47l1-1a37.11,37.11,0,0,0,2-4.46Q262.22,96.54,291.78,7.84L279.09,17.6a1.85,1.85,0,0,1-2.93-.42,1.85,1.85,0,0,1,.42-2.93l18-13.8A2.44,2.44,0,0,1,296.32,0a1.7,1.7,0,0,1,1.32,1,2.13,2.13,0,0,1,.28,1.82q-3.07,9.06-7.88,23.43T274.35,71.86q-10.89,31.24-17.16,47,13.67-14.64,43.1-44.07c.09,0,.19-.09.28-.28v-.14a21.54,21.54,0,0,0-.7-2.23q-4.32-8.51,49-50.91Q363.34,9.65,375.33.86A2,2,0,0,1,378,1a1.81,1.81,0,0,1,.7,1.47,2.22,2.22,0,0,1-.7,1.6Q339.91,41.18,305.17,75.9Zm-1.25-4.74q19.24-19.11,43-42.4Q330.14,42.43,317.1,54.84T303.64,70.32C303.73,70.6,303.82,70.88,303.92,71.16Z"/><path class="cls-1" d="M370.59,81.62q-.84,2.23-1.68,4.33-4.19,12.14-4,16.46,2.64-2,8.65-11.23t11.22-17.51q5.24-8.22,6.35-8.23a2,2,0,0,1,1.46.63,2,2,0,0,1,.63,1.47,2.4,2.4,0,0,1-.28,1.11q-9.19,16-11.85,19.95-11.16,17.15-16,18.27a3.09,3.09,0,0,1-2.79-.77,4.51,4.51,0,0,1-1.4-2.44q-.69-3.63,2.23-13.39a3.66,3.66,0,0,1-1.67.42,3.58,3.58,0,0,1-3.49-1.61,7.21,7.21,0,0,1-1.11-4,28.08,28.08,0,0,1,1.39-9.69,32.68,32.68,0,0,1,3.63-8.58,4.62,4.62,0,0,1,2.65-2.09,5.18,5.18,0,0,1,4,1,16.88,16.88,0,0,1,5.16,6,2,2,0,0,1-.69,2.79,2.37,2.37,0,0,1-1.68.21,1.92,1.92,0,0,1-1.25-1A23.65,23.65,0,0,0,367.94,71c-1.12-1.34-1.91-2.07-2.38-2.16l-.27.28q-1.82,2.66-3.35,9.21c-1,4.37-1.26,7.11-.7,8.22,1-.09,2.09-.92,3.21-2.51a22.46,22.46,0,0,0,2.23-4c.46-1.3.88-2.42,1.26-3.35a2,2,0,0,1,2.37-1.25,2.16,2.16,0,0,1,1.39,1,1.93,1.93,0,0,1,.14,1.61A25.27,25.27,0,0,1,370.59,81.62Z"/><path class="cls-1" d="M400.43,71.58q-4,13.11-8.22,25.66,2.22-3.34,5.78-8.85t5.79-8.86q2.24-3.34,4.74-7a52.77,52.77,0,0,1,4.12-5.37c1.07-1.17,1.88-1.75,2.44-1.75a2,2,0,0,1,1.46.63,2,2,0,0,1,.21,2.72q-12.83,18.13-26.08,38.36c-1.58,2.42-3,4.69-4.32,6.83-.28.65-.68,1.72-1.19,3.21s-.93,2.63-1.25,3.42-.75,1.76-1.26,2.93-.95,2.06-1.32,2.72a21.79,21.79,0,0,1-1.33,2,4.67,4.67,0,0,1-1.6,1.46,3.73,3.73,0,0,1-1.68.42q-5.43-.42,3.49-14.37c.28-.46.65-1.07,1.12-1.81a22.94,22.94,0,0,1,1.25-2q1.26-3.48,2.79-7.67,3.5-10,7.81-23.57a7.5,7.5,0,0,1-.91,1.11c-.51.56-.83.93-1,1.12s-.44.53-.91,1a10.17,10.17,0,0,1-1,1c-.24.19-.56.47-1,.84a4.34,4.34,0,0,1-1.12.76,8.36,8.36,0,0,0-1,.56,2.86,2.86,0,0,1-1.12.42,8.27,8.27,0,0,1-1.11.07,2.61,2.61,0,0,1-2.31-1.39,4.47,4.47,0,0,1-.48-2.52q.56-5.85,10.46-20.64a5,5,0,0,1,3.48-2.37,5.16,5.16,0,0,1,3.35,1q3.07,2.09,5.72,7.95a2.12,2.12,0,0,1,0,1.53,1.7,1.7,0,0,1-1.12,1.12A1.81,1.81,0,0,1,400.43,71.58Zm-1.81-3.35a9.91,9.91,0,0,0-1.25-1.74,14.44,14.44,0,0,0-1.12-1.12,1.4,1.4,0,0,0-.56-.35,1.64,1.64,0,0,0-.56.56q-6.83,10.19-9.2,16.74a42.72,42.72,0,0,0,4.67-4.95q2.72-3.28,4.53-5.79L397,69.07A1.87,1.87,0,0,1,398.62,68.23Z"/><path class="cls-1" d="M453.29,69.35q13.26-3.9,14.93-3.91a2,2,0,0,1,1.46.63,2,2,0,0,1,.63,1.47,2.08,2.08,0,0,1-1.53,2.09q-6.7,1.53-15.21,4a12.16,12.16,0,0,1-3.76,6.14q-5.73,5.72-15.69,9.41t-13.18.63q-7.81,10.88-9.91,15.07a1.92,1.92,0,0,1-2.51.83,1.86,1.86,0,0,1-1.18-1.11,2.32,2.32,0,0,1-.07-1.68l27.89-61.37L416.61,69.35a2,2,0,1,1-3.35-2.23l32.92-49.38a1.71,1.71,0,0,1,1.33-1,2,2,0,0,1,1.6.42,1.84,1.84,0,0,1,.7,2.51l-28.6,62.77c.38-.46.75-.93,1.12-1.4a77.46,77.46,0,0,1,9.76-10.74q12.56-11.56,19.25-4.18A9,9,0,0,1,453.29,69.35Zm-5,5.86Q429.16,81.48,425,86.5a1.9,1.9,0,0,0-.28.42q4.19,0,12.35-3.76T448.27,75.21ZM430.7,77.58a119.89,119.89,0,0,1,18.55-7,5.31,5.31,0,0,0-1-1.67q-3.9-4.19-13.39,4.46Q432.93,75.2,430.7,77.58Z"/><path class="cls-1" d="M475.19,81.62c-.56,1.49-1.11,2.93-1.67,4.33q-4.18,12.14-4,16.46,2.65-2,8.65-11.23t11.23-17.51q5.23-8.22,6.35-8.23a2.15,2.15,0,0,1,2.09,2.1,2.53,2.53,0,0,1-.28,1.11q-9.21,16-11.86,19.95-11.16,17.15-16,18.27a3.1,3.1,0,0,1-2.79-.77,4.55,4.55,0,0,1-1.39-2.44q-.69-3.63,2.23-13.39a3.72,3.72,0,0,1-1.67.42,3.58,3.58,0,0,1-3.49-1.61,7.22,7.22,0,0,1-1.12-4,28.11,28.11,0,0,1,1.4-9.69,32.35,32.35,0,0,1,3.63-8.58,4.62,4.62,0,0,1,2.65-2.09,5.18,5.18,0,0,1,4,1,16.88,16.88,0,0,1,5.16,6,2,2,0,0,1-.7,2.79,2.34,2.34,0,0,1-1.67.21,1.92,1.92,0,0,1-1.26-1A21.48,21.48,0,0,0,472.54,71c-1.11-1.34-1.9-2.07-2.37-2.16l-.28.28q-1.81,2.66-3.35,9.21t-.69,8.22c1-.09,2.09-.92,3.21-2.51a23.1,23.1,0,0,0,2.23-4c.46-1.3.88-2.42,1.25-3.35a2,2,0,0,1,2.37-1.25,2.18,2.18,0,0,1,1.4,1,2,2,0,0,1,.14,1.61A24.22,24.22,0,0,1,475.19,81.62Z"/><path class="cls-1" d="M494.51,69.42a1.85,1.85,0,0,1-.63-2.86L529,13.84a2.08,2.08,0,0,1,1.47-1,2,2,0,0,1,1.6.42,1.88,1.88,0,0,1,.7,2.23Q513.56,83,511.74,99.62A95.14,95.14,0,0,0,520.24,88q5.73-8.72,10.4-15.62t5.78-6.91a2.15,2.15,0,0,1,2.1,2.1,2.53,2.53,0,0,1-.28,1.11l-.28.56q-19.66,33.48-26.78,36.12a1.62,1.62,0,0,0-.7.14,1.88,1.88,0,0,1-2.09-.69,4.38,4.38,0,0,1-.84-1.82q-1.26-8,17.72-75.87l-27.9,41.7A1.78,1.78,0,0,1,494.51,69.42Z"/><path class="cls-1" d="M543.4,81.62q-.84,2.23-1.68,4.33-4.19,12.14-4,16.46,2.64-2,8.65-11.23t11.22-17.51q5.24-8.22,6.35-8.23a2,2,0,0,1,1.46.63,2,2,0,0,1,.63,1.47,2.4,2.4,0,0,1-.28,1.11q-9.19,16-11.85,19.95-11.16,17.15-16,18.27a3.09,3.09,0,0,1-2.79-.77,4.51,4.51,0,0,1-1.4-2.44q-.69-3.63,2.23-13.39a3.66,3.66,0,0,1-1.67.42,3.58,3.58,0,0,1-3.49-1.61,7.21,7.21,0,0,1-1.11-4A28.08,28.08,0,0,1,531,75.42a32.68,32.68,0,0,1,3.63-8.58,4.62,4.62,0,0,1,2.65-2.09,5.18,5.18,0,0,1,4,1,16.88,16.88,0,0,1,5.16,6,2,2,0,0,1-.69,2.79,2.37,2.37,0,0,1-1.68.21,1.92,1.92,0,0,1-1.25-1A23.65,23.65,0,0,0,540.75,71c-1.12-1.34-1.91-2.07-2.38-2.16l-.27.28q-1.82,2.66-3.35,9.21c-1,4.37-1.26,7.11-.7,8.22,1-.09,2.09-.92,3.21-2.51a22.46,22.46,0,0,0,2.23-4c.46-1.3.88-2.42,1.26-3.35a2,2,0,0,1,2.37-1.25,2.16,2.16,0,0,1,1.39,1,1.93,1.93,0,0,1,.14,1.61A25.27,25.27,0,0,1,543.4,81.62Z"/></g></g></svg>