<svg xmlns="http://www.w3.org/2000/svg" viewBox="0 0 82.99 65.39"><title>p80 BlueAsset 1</title><g id="Layer_2" data-name="Layer 2"><g id="Layer_1-2" data-name="Layer 1"><rect y="1.39" width="3.91" height="13.43" style="fill:#224098"/><path d="M45,24.38a15.44,15.44,0,0,1,3.25,2.34c.2-.18.39-.38.58-.57A15.89,15.89,0,0,1,46.48,23,11,11,0,0,1,45,24.38" style="fill:#27a9e0"/><path d="M48.27,26.72a15.45,15.45,0,0,0-17.85-2.34,11.33,11.33,0,0,0,4.84,2.34A11.53,11.53,0,0,1,45,29.06a11.54,11.54,0,1,1-14.6,0,14.76,14.76,0,0,1-3.25-2.34,15.45,15.45,0,1,0,21.1,0" style="fill:#224098"/><path d="M40.18,26.72a11.34,11.34,0,0,1-4.92,0,11.33,11.33,0,0,1-4.84-2.34A11.68,11.68,0,0,1,29,23a11.53,11.53,0,0,1-2.36-4.47,11.25,11.25,0,0,1-.41-3,11.12,11.12,0,0,1,.41-3A11.65,11.65,0,0,0,24.22,8a15.42,15.42,0,0,0,2.37,18.2c.18.19.38.39.58.57a14.76,14.76,0,0,0,3.25,2.34,15.4,15.4,0,0,0,14.6,0,11.57,11.57,0,0,0-4.84-2.34" style="fill:#27a9e0"/><path d="M29,8a15.75,15.75,0,0,0-2.36-3.2A15.44,15.44,0,0,0,0,14.73H3.94A11.53,11.53,0,0,1,24.22,8a11.65,11.65,0,0,1,2.37,4.48,11.52,11.52,0,0,1,.4,3,11.66,11.66,0,0,1-.4,3A11.53,11.53,0,0,0,29,23,15.4,15.4,0,0,0,29,8" style="fill:#1b75bb"/><path d="M15.45,27A11.55,11.55,0,0,1,4,16.72H.06a15.44,15.44,0,0,0,26.53,9.43A15.52,15.52,0,0,1,24.22,23a11.53,11.53,0,0,1-8.77,4" style="fill:#1b75bb"/><path d="M51.22,8a15.79,15.79,0,0,0-2.37-3.2,15.41,15.41,0,0,0-22.26,0A15.75,15.75,0,0,1,29,8,11.53,11.53,0,0,1,46.48,8a11.38,11.38,0,0,1,2.37,4.48,11.53,11.53,0,0,1,.41,3,11.66,11.66,0,0,1-.41,3A11.68,11.68,0,0,0,51.22,23a15.4,15.4,0,0,0,0-15" style="fill:#27a9e0"/><path d="M60,0A15.45,15.45,0,0,0,48.85,4.75,15.79,15.79,0,0,1,51.22,8a11.54,11.54,0,1,1,0,15,11.46,11.46,0,0,1-2.77-7.5,11.52,11.52,0,0,1,.4-3A11.38,11.38,0,0,0,46.48,8a15.47,15.47,0,0,0,0,15,15.89,15.89,0,0,0,2.37,3.2A15.45,15.45,0,1,0,60,0" style="fill:#1b75bb"/><rect y="16.7" width="3.91" height="36.75" style="fill:#224098"/><text transform="translate(0 63.37)" style="font-size:7.75972843170166px;fill:#27a9e0;font-family:GlacialIndifference-Regular, Glacial Indifference;letter-spacing:0.219985952475615em">PRONOUNCED<tspan x="66.83" y="0" style="font-family:GlacialIndifference-Bold, Glacial Indifference;font-weight:700">80 </tspan></text></g></g></svg>