<svg xmlns="http://www.w3.org/2000/svg" viewBox="0 0 82.99 67.6"><title>p80 whiteAsset 2</title><g id="Layer_2" data-name="Layer 2"><g id="Layer_1-2" data-name="Layer 1"><text transform="translate(0 65.58)" style="font-size:7.75972843170166px;fill:#fff;font-family:GlacialIndifference-Regular, Glacial Indifference;letter-spacing:0.219985952475615em">PRONOUNCED<tspan x="66.83" y="0" style="font-family:GlacialIndifference-Bold, Glacial Indifference;font-weight:700">80 </tspan></text><path d="M3.33,1.41H0v9.45A15.88,15.88,0,0,1,3.33,4.79Z" style="fill:#fff"/><path d="M46.76,24.91l.38.26.48.37.34.27.56.48.16-.15-.28-.32-.29-.33c-.18-.21-.35-.43-.51-.65l-.11-.16c-.08-.09-.14-.19-.21-.28s-.12-.19-.19-.28l-.16-.26c-.08-.12-.16-.24-.23-.36l0-.06a11.77,11.77,0,0,1-.87.86l.14.09.34.2.49.32" style="fill:#fff"/><path d="M48.31,27a15.53,15.53,0,0,0-3.22-2.33A15.3,15.3,0,0,0,31,24.41l.49.35.47.29a10.57,10.57,0,0,0,1.42.73l.23.09.28.11.28.1a9.87,9.87,0,0,0,1.15.32,12.06,12.06,0,0,1,5,0h0l.07,0a11.85,11.85,0,0,1,5,2.43l.18.15.17.15a12,12,0,1,1-15.88,0l-.14-.08-.34-.2-.5-.33-.22-.16a1.37,1.37,0,0,1-.21-.15,14.93,14.93,0,0,1-1.32-1.06A15.32,15.32,0,1,0,48.31,27" style="fill:#fff"/><path d="M25.8,10.94a2,2,0,0,0-.1-.21.94.94,0,0,0-.06-.15c-.05-.1-.09-.2-.14-.29l-.06-.13c-.08-.16-.17-.32-.26-.47s-.18-.32-.29-.48h0a4.81,4.81,0,0,0-.27-.41.44.44,0,0,0-.08-.11l-.29-.39a15.29,15.29,0,0,0,.22,14.46,15.15,15.15,0,0,0,2.35,3.17c.2.2.39.4.58.58a15.43,15.43,0,0,0,3.22,2.31,15.26,15.26,0,0,0,14,.23h0l-.18-.13-.21-.15-.45-.29-.16-.1a11.16,11.16,0,0,0-1.38-.7l-.23-.09-.28-.11a10.59,10.59,0,0,0-1.43-.42,12.24,12.24,0,0,1-5,0l-.07,0a12.07,12.07,0,0,1-5-2.43l-.35-.3c-.3-.27-.59-.56-.87-.85l-.3-.34a12,12,0,0,1-2.46-4.65l0-.08h0a12.18,12.18,0,0,1-.4-3.06,11.74,11.74,0,0,1,.4-3.06,10.31,10.31,0,0,0-.46-1.32" style="fill:#fff"/><path d="M15.32,3.33a12,12,0,0,1,8.81,3.86l.3.34a12,12,0,0,1,2.46,4.64.29.29,0,0,0,0,.09,11.9,11.9,0,0,1,0,6.12h0a11.37,11.37,0,0,0,.69,1.82l.12.25a11.72,11.72,0,0,0,.87,1.44l.17.23.17.22a15.27,15.27,0,0,0-.22-14.45,15.48,15.48,0,0,0-2.35-3.18A15.32,15.32,0,0,0,4,5c-.11.11-.21.23-.32.35l-.31.39A15.24,15.24,0,0,0,0,14.27H3.38a13.51,13.51,0,0,1,.26-1.69L4,11.48A12,12,0,0,1,15.32,3.33" style="fill:#fff"/><path d="M26,25.94l-.3-.35a9.89,9.89,0,0,1-.64-.81l-.3-.41a9.9,9.9,0,0,1-.56-.87l0-.06A12,12,0,0,1,4,19.15v6.4a15.25,15.25,0,0,0,22.19.59l-.18-.2" style="fill:#fff"/><path d="M27.26,4.76A13.38,13.38,0,0,1,28.21,6l.23.32.27.39L29,7.2a12,12,0,0,1,17.62,0l.3.34a12,12,0,0,1,2.46,4.64l0,.09a12.18,12.18,0,0,1,.4,3.06,11.79,11.79,0,0,1-.4,3.06A11.53,11.53,0,0,0,50,20c.07.16.15.33.24.5a10.84,10.84,0,0,0,.86,1.43l.15.2a2.35,2.35,0,0,0,.19.25,15.27,15.27,0,0,0-.22-14.45,15.48,15.48,0,0,0-2.35-3.18A15.29,15.29,0,0,0,27,4.5l.06.06.18.2" style="fill:#fff"/><path d="M60.38,0A15.16,15.16,0,0,0,49.55,4.5l.06.06.18.2c.34.38.66.78,1,1.19l.2.28c.22.32.42.64.62,1a12,12,0,1,1,0,16.25l-.3-.34a12,12,0,0,1-2.46-4.65.19.19,0,0,0,0-.08,11.9,11.9,0,0,1,0-6.12h0a12.12,12.12,0,0,0-.46-1.32l-.09-.21-.07-.15c0-.1-.09-.19-.14-.29L48,10.16c-.08-.16-.17-.32-.26-.47s-.19-.32-.29-.48h0c-.09-.14-.18-.28-.28-.41a1,1,0,0,0-.08-.11c-.09-.13-.19-.26-.29-.38A15.32,15.32,0,1,0,60.38,0" style="fill:#fff"/><polygon points="0 18.42 0 19.72 0 53.45 3.33 53.45 3.33 25.79 3.33 25.33 3.33 24.81 3.33 16.92 3.33 16.9 0 16.9 0 18.42" style="fill:#fff"/></g></g></svg>